<svg xmlns="http://www.w3.org/2000/svg"><defs><symbol id="icon-facebook" fill="none" viewBox="0 0 19 32"><path d="M12 1H9a5 5 0 0 0-5 5v3H1v4h3v8h4v-8h3l1-4H8V6a1 1 0 0 1 1-1h3V1Z" stroke="#59BE29" stroke-width="2" stroke-linecap="round" stroke-linejoin="round"/></symbol><symbol id="icon-instagram" viewBox="0 0 32 32"><path d="M16 1H6a5 5 0 0 0-5 5v10a5 5 0 0 0 5 5h10a5 5 0 0 0 5-5V6a5 5 0 0 0-5-5Z" stroke="#59BE29" stroke-width="2" stroke-linecap="round" stroke-linejoin="round"/><path d="M15 10.37a4 4 0 1 1-7.914 1.173A4 4 0 0 1 15 10.37ZM16.5 5.5h.01" stroke="#59BE29" stroke-width="2" stroke-linecap="round" stroke-linejoin="round"/></symbol><symbol id="icon-twitter" viewBox="0 0 38 32"><path d="M23 1.01a10.9 10.9 0 0 1-3.14 1.53 4.48 4.48 0 0 0-7.86 3v1a10.66 10.66 0 0 1-9-4.53s-4 9 5 13a11.64 11.64 0 0 1-7 2c9 5 20 0 20-11.5 0-.278-.028-.556-.08-.83A7.72 7.72 0 0 0 23 1.01v0Z" stroke="#59BE29" stroke-width="2" stroke-linecap="round" stroke-linejoin="round"/></symbol></defs></svg>