<svg xmlns="http://www.w3.org/2000/svg">
  <defs>
    <symbol id="icon-facebook" viewBox="0 0 19 32">
      <path d="M17.455 1.455h-4.364a7.273 7.273 0 0 0-7.273 7.273v4.364H1.454v5.818h4.364v11.636h5.818V18.91H16l1.455-5.818h-5.818V8.728a1.455 1.455 0 0 1 1.455-1.455h4.364V1.455z"/></path>
    </symbol>
    <symbol id="icon-instagram" viewBox="0 0 32 32">
      <path d="M23.273 1.455H8.728a7.273 7.273 0 0 0-7.273 7.273v14.545a7.273 7.273 0 0 0 7.273 7.273h14.545a7.273 7.273 0 0 0 7.273-7.273V8.728a7.273 7.273 0 0 0-7.273-7.273z"/></path>
      <path d="M21.818 15.083a5.81 5.81 0 0 1-3.14 6.05 5.815 5.815 0 0 1-6.73-1.083 5.822 5.822 0 0 1 1.434-9.279 5.82 5.82 0 0 1 8.435 4.311zM24 8h.015"/></path>
    </symbol>
    <symbol id="icon-twitter" viewBox="0 0 38 32">
      <path d="M36.8 1.616a17.446 17.446 0 0 1-5.024 2.448 7.172 7.172 0 0 0-7.965-1.993 7.172 7.172 0 0 0-4.612 6.793v1.6a17.058 17.058 0 0 1-14.4-7.248s-6.4 14.4 8 20.8a18.625 18.625 0 0 1-11.2 3.2c14.4 8 32 0 32-18.4a7.131 7.131 0 0 0-.128-1.328 12.354 12.354 0 0 0 3.328-5.872v0z"/></path>
    </symbol>
  </defs>
</svg>
