<svg  xmlns="http://www.w3.org/2000/svg">
  <defs>
<symbol id="icon-facebook" fill="none" viewBox="0 0 19 32">
<path d="M12 1H9C7.67392 1 6.40215 1.52678 5.46447 2.46447C4.52678 3.40215 4 4.67392 4 6V9H1V13H4V21H8V13H11L12 9H8V6C8 5.73478 8.10536 5.48043 8.29289 5.29289C8.48043 5.10536 8.73478 5 9 5H12V1Z" stroke="#59BE29" stroke-width="2" stroke-linecap="round" stroke-linejoin="round"/>
</symbol>
<symbol id="icon-instagram" viewBox="0 0 32 32">
<path d="M16 1H6C3.23858 1 1 3.23858 1 6V16C1 18.7614 3.23858 21 6 21H16C18.7614 21 21 18.7614 21 16V6C21 3.23858 18.7614 1 16 1Z" stroke="#59BE29" stroke-width="2" stroke-linecap="round" stroke-linejoin="round"/>
<path d="M14.9997 10.3698C15.1231 11.2021 14.981 12.052 14.5935 12.7988C14.206 13.5456 13.5929 14.1512 12.8413 14.5295C12.0898 14.9077 11.2382 15.0394 10.4075 14.9057C9.57683 14.7721 8.80947 14.3799 8.21455 13.785C7.61962 13.1901 7.22744 12.4227 7.09377 11.592C6.96011 10.7614 7.09177 9.90971 7.47003 9.15819C7.84829 8.40667 8.45389 7.79355 9.20069 7.40605C9.94749 7.01856 10.7975 6.8764 11.6297 6.99981C12.4786 7.1257 13.2646 7.52128 13.8714 8.12812C14.4782 8.73496 14.8738 9.52089 14.9997 10.3698Z" stroke="#59BE29" stroke-width="2" stroke-linecap="round" stroke-linejoin="round"/>
<path d="M16.5 5.5H16.51" stroke="#59BE29" stroke-width="2" stroke-linecap="round" stroke-linejoin="round"/>
</symbol>
<symbol id="icon-twitter" viewBox="0 0 38 32">
<path d="M23 1.01006C22.0424 1.68553 20.9821 2.20217 19.86 2.54006C19.2577 1.84757 18.4573 1.35675 17.567 1.13398C16.6767 0.911216 15.7395 0.967251 14.8821 1.29451C14.0247 1.62177 13.2884 2.20446 12.773 2.96377C12.2575 3.72309 11.9877 4.62239 12 5.54006V6.54006C10.2426 6.58562 8.50127 6.19587 6.93101 5.4055C5.36074 4.61513 4.01032 3.44869 3 2.01006C3 2.01006 -1 11.0101 8 15.0101C5.94053 16.408 3.48716 17.109 1 17.0101C10 22.0101 21 17.0101 21 5.51006C20.9991 5.23151 20.9723 4.95365 20.92 4.68006C21.9406 3.67355 22.6608 2.40277 23 1.01006V1.01006Z" stroke="#59BE29" stroke-width="2" stroke-linecap="round" stroke-linejoin="round"/>
</symbol>
</defs>
</svg>
